<svg version="1.1" id="Layer_1" xmlns="http://www.w3.org/2000/svg" xmlns:xlink="http://www.w3.org/1999/xlink" x="0px" y="0px"
	 width="100%" viewBox="0 0 1024 1024" enable-background="new 0 0 1024 1024" xml:space="preserve">
<path fill="#000000" opacity="1.000000" stroke="none" 
	d="
M215.715652,532.161316 
	C212.943665,524.684814 207.007782,522.526123 200.243393,520.923157 
	C190.063782,518.510803 180.021500,515.507324 169.950409,512.650879 
	C144.155655,505.334625 135.216034,489.480438 133.832977,464.380310 
	C132.742844,444.596222 137.872696,425.493134 143.095291,406.557983 
	C144.951492,399.828094 146.786545,393.088287 149.493362,386.624573 
	C153.995819,375.873047 161.995270,370.499786 173.667770,369.549561 
	C191.079300,368.132141 207.408524,363.594025 222.516022,353.976898 
	C245.278610,339.486755 268.896118,326.395355 293.573120,315.316589 
	C312.721985,306.719635 332.860413,302.261993 353.582977,299.500397 
	C388.580109,294.836578 423.711609,296.246613 458.780457,296.895325 
	C488.316833,297.441681 515.999146,305.759369 542.093384,319.980591 
	C569.610352,334.977173 596.904602,350.308807 622.983032,367.684174 
	C631.477234,373.343658 640.941467,374.334656 650.453369,375.557068 
	C675.315125,378.752258 700.084167,382.507721 724.722839,387.118835 
	C747.943970,391.464600 771.038025,396.377655 792.949768,405.480560 
	C806.758850,411.217346 820.948181,416.416809 832.253479,426.806519 
	C843.325989,436.982330 848.603577,449.871002 850.437622,464.613586 
	C851.844788,475.925110 851.336121,487.229034 851.236816,498.526489 
	C851.167236,506.449646 849.235657,514.061829 843.376587,520.026001 
	C837.630920,525.874695 830.115906,527.615784 822.426147,528.164734 
	C811.967224,528.911560 801.462769,529.077576 790.973938,529.323975 
	C786.066589,529.439331 785.025818,528.043823 785.861938,523.358521 
	C785.891174,523.194946 785.940430,523.035095 785.974915,522.872314 
	C788.386108,511.502014 788.371948,511.383575 800.800842,509.912811 
	C806.733582,509.210785 812.725586,508.886780 818.700562,508.692596 
	C828.312439,508.380219 831.186340,506.210205 832.464050,496.643250 
	C833.609924,488.062653 833.900330,479.401337 833.677734,470.726379 
	C833.601379,467.750702 832.290344,466.168488 829.547852,465.301636 
	C825.631287,464.063660 821.592102,464.075897 817.649109,464.419525 
	C800.582153,465.906708 788.079163,457.436890 776.786255,446.152863 
	C775.957275,445.324554 775.216003,444.421570 775.222351,441.859772 
	C789.732117,442.486237 804.235718,443.112457 819.403076,443.767303 
	C817.975464,439.730042 815.334900,438.596771 812.998108,437.262115 
	C792.155273,425.358154 769.785034,417.532379 746.409424,412.384583 
	C721.914185,406.990173 697.135315,403.401245 672.272888,400.198822 
	C654.317139,397.886078 636.317444,396.096802 618.312744,394.286438 
	C612.529724,393.704956 607.640625,390.876099 602.919617,387.625549 
	C577.388794,370.047150 551.388367,353.223663 524.027649,338.578430 
	C505.423828,328.620514 485.529175,323.512329 464.620239,321.183746 
	C445.040771,319.003235 425.398865,318.323395 405.806763,318.626556 
	C382.258606,318.990906 358.552368,318.624084 335.356262,324.271790 
	C321.978149,327.529083 309.528168,333.023773 297.331299,339.178864 
	C275.462097,350.215027 254.023132,362.048157 233.238052,375.013824 
	C220.514969,382.950470 206.696579,387.054138 191.883179,388.421570 
	C187.099152,388.863190 182.294632,389.570404 177.629425,390.695129 
	C170.999664,392.293488 166.047028,396.495972 162.526993,402.243011 
	C153.337784,417.245850 148.433868,433.663635 146.182785,451.049805 
	C145.289719,457.947540 145.607407,464.601440 147.142090,471.298615 
	C149.209320,480.319885 154.342209,486.797424 162.709976,490.882965 
	C174.617981,496.697052 187.481186,499.552368 200.064865,503.277802 
	C203.649689,504.339142 203.777954,501.865112 203.901749,499.307251 
	C204.441925,488.145355 205.616409,477.192291 210.662979,466.870789 
	C228.437302,430.517792 274.626099,419.372589 305.858307,445.081116 
	C327.220367,462.665100 335.135590,486.302307 327.826813,513.209045 
	C320.768860,539.192566 302.291809,553.968323 275.996246,558.357178 
	C250.667114,562.584839 230.705368,553.230042 215.715652,532.161316 
M308.647583,497.342804 
	C308.532928,486.317078 305.380890,476.324463 297.963440,468.037354 
	C286.041534,454.717621 268.728363,450.273163 253.571472,456.363434 
	C235.891937,463.467346 226.127686,478.732513 225.934921,497.477783 
	C225.657074,524.498413 251.146469,543.280823 277.910583,536.525940 
	C295.053467,532.199402 306.214630,518.022827 308.647583,497.342804 
z"/>
<path fill="#000000" opacity="1.000000" stroke="none" 
	d="
M481.964172,361.649231 
	C481.322723,371.273499 484.532318,377.003143 494.369202,379.385651 
	C498.819672,380.463562 502.046967,381.199646 505.501160,378.074066 
	C506.235443,377.409698 507.140686,376.934326 507.966919,376.371552 
	C515.947693,370.935242 518.848389,371.210052 525.612915,378.228790 
	C528.964966,381.706879 532.171692,385.324554 535.492798,388.833038 
	C538.704712,392.226196 539.128296,395.782318 536.349548,399.631317 
	C535.765137,400.440918 535.201782,401.271942 534.702942,402.135956 
	C532.882080,405.289337 528.062195,407.378540 528.612183,410.875793 
	C529.471008,416.337738 532.239380,421.499542 534.199768,426.788116 
	C534.963745,428.848999 536.759583,428.576263 538.402283,428.635773 
	C542.210144,428.773834 546.011963,428.439606 549.789062,429.602112 
	C553.530273,430.753571 555.341492,433.001709 555.338135,436.846558 
	C555.332886,442.845093 555.388123,448.843964 555.336426,454.842041 
	C555.282776,461.067230 553.290588,464.473694 547.360474,463.952698 
	C535.426331,462.904297 531.091553,469.636597 528.189819,479.258484 
	C527.423767,481.798706 527.305176,483.606750 529.173157,485.570465 
	C531.351685,487.860596 533.383057,490.299103 535.371521,492.759583 
	C538.065918,496.093536 538.013000,499.573242 535.185059,502.725433 
	C530.961060,507.433746 526.650085,512.075623 522.170044,516.538879 
	C518.795105,519.901245 514.390259,520.878723 511.035278,517.267822 
	C503.890747,509.578156 496.486938,509.725708 487.695648,514.127441 
	C484.155396,515.899963 481.584625,517.075928 482.312592,521.457947 
	C482.473267,522.424927 482.331055,523.456726 482.235199,524.449707 
	C481.193451,535.238953 478.941986,537.302612 468.162872,537.351929 
	C465.163635,537.365662 462.164001,537.355591 459.164856,537.325378 
	C450.179840,537.234924 446.526398,534.752563 447.003479,526.037537 
	C447.464905,517.608643 443.954010,514.868469 436.705780,512.283813 
	C430.717407,510.148376 426.489136,510.094971 422.029510,514.417542 
	C420.616394,515.787231 418.784607,516.740051 417.096222,517.807373 
	C413.603638,520.015137 410.189026,520.054016 407.017212,517.183777 
	C401.820465,512.481079 397.057678,507.362701 392.624603,501.937469 
	C389.807648,498.490143 390.095001,494.589020 393.118958,492.031799 
	C401.109985,485.274048 400.948273,478.274048 396.001282,469.749573 
	C394.077698,466.434967 392.308624,464.752045 388.688568,464.373260 
	C374.874390,462.927887 374.647247,462.626770 374.651276,449.002075 
	C374.652313,445.502808 374.620972,442.002869 374.676025,438.504395 
	C374.778961,431.964355 376.719757,428.754730 382.905182,428.985840 
	C392.929443,429.360382 397.924713,425.218689 400.060059,415.647369 
	C400.849762,412.107727 401.607117,409.562347 398.819672,406.737030 
	C396.612305,404.499664 394.872528,401.802246 392.913177,399.318542 
	C390.351044,396.070648 390.512939,392.758972 393.126282,389.765076 
	C397.395996,384.873657 401.799103,380.092102 406.293030,375.405182 
	C409.652435,371.901489 413.978485,371.207489 417.496613,374.412354 
	C424.922333,381.176758 432.101624,382.013062 441.091644,377.045349 
	C445.047882,374.859161 447.133331,373.403503 446.767151,368.833740 
	C446.559570,366.243530 447.264526,363.564606 447.676117,360.944092 
	C448.267212,357.180481 450.517609,355.282867 454.307953,354.607605 
	C461.130188,353.392303 467.884735,353.724518 474.678314,354.667633 
	C478.638123,355.217438 480.972168,357.395660 481.964172,361.649231 
M441.738739,476.783752 
	C456.717957,486.573822 472.082306,486.528198 486.487640,476.650848 
	C498.833252,468.185791 504.812866,452.564575 501.591003,437.194702 
	C497.328552,416.860657 476.062988,403.135529 456.256104,407.971069 
	C440.293304,411.868103 430.121582,422.167053 426.818756,437.872406 
	C423.603241,453.162872 428.600342,466.427826 441.738739,476.783752 
z"/>
<path fill="#000000" opacity="1.000000" stroke="none" 
	d="
M571.360474,644.774048 
	C575.888611,656.432922 580.319824,667.718628 585.016724,679.681091 
	C588.301270,674.929077 589.595703,669.961731 591.427795,665.312927 
	C601.314148,640.226257 611.078064,615.090698 620.722229,589.909973 
	C622.161743,586.151367 623.983154,584.392029 628.309204,584.548950 
	C637.962891,584.899048 647.639404,584.759460 657.303406,584.609497 
	C660.768555,584.555725 662.409424,585.370605 662.399902,589.308777 
	C662.294312,632.973633 662.301270,676.638977 662.408569,720.303833 
	C662.418579,724.376831 660.450317,724.968872 657.136719,724.846008 
	C651.314758,724.630127 645.463074,724.278870 639.665771,724.646484 
	C635.443115,724.914246 634.596375,723.301819 634.609192,719.539734 
	C634.705811,691.207764 634.661377,662.875244 634.607361,634.542969 
	C634.604065,632.811768 635.249451,630.888550 633.774292,629.293030 
	C631.883057,629.998779 631.671021,631.766113 631.058289,633.242676 
	C619.064880,662.145569 607.026245,691.031982 596.361755,720.460876 
	C595.279846,723.446411 593.827759,724.861145 590.596741,724.478149 
	C588.624023,724.244263 586.601929,724.420166 584.602051,724.422363 
	C575.018433,724.432983 575.104553,724.402039 571.638184,715.134277 
	C561.143616,687.075806 550.160461,659.209106 538.567688,631.584717 
	C537.823853,629.812256 536.967285,628.086975 535.328613,626.551819 
	C535.328613,644.347839 535.329285,662.143799 535.328369,679.939819 
	C535.327759,692.606018 535.331238,705.272278 535.320618,717.938477 
	C535.315063,724.516235 535.303284,724.484924 528.952148,724.452759 
	C521.809143,724.416565 514.665833,724.444458 507.703094,724.444458 
	C506.135925,722.592834 506.691711,720.679504 506.690186,718.924316 
	C506.652863,676.259155 506.747894,633.593506 506.539703,590.929321 
	C506.514435,585.748535 508.129181,584.366272 513.073975,584.556763 
	C522.226746,584.909424 531.415894,584.949707 540.563904,584.539490 
	C545.529602,584.316711 547.939819,586.000488 549.729797,590.634705 
	C556.685547,608.642639 564.050720,626.492371 571.360474,644.774048 
z"/>
<path fill="#000000" opacity="1.000000" stroke="none" 
	d="
M773.210754,488.442871 
	C773.690247,498.909515 773.475586,508.822601 769.933105,518.413940 
	C760.749756,543.278442 734.725891,561.273438 708.203735,560.194214 
	C689.196899,559.420715 672.843445,551.708923 660.648499,537.136719 
	C655.167236,530.587036 648.491089,530.857544 641.809021,530.544189 
	C629.175232,529.951904 616.488647,530.540161 603.847168,530.045715 
	C585.035828,529.309875 566.226318,529.427795 547.413452,529.349609 
	C544.794800,529.338745 541.647461,529.744873 540.856445,526.296265 
	C539.995544,522.542480 542.565491,520.312561 545.524536,518.912109 
	C551.531799,516.069092 558.131348,515.932922 564.570068,515.791016 
	C577.888123,515.497559 591.217834,515.782410 604.539673,515.602112 
	C616.687622,515.437805 628.832886,515.016724 640.976501,514.619629 
	C645.916077,514.458130 646.997559,512.818298 646.239380,507.970551 
	C639.285095,463.503387 673.163391,431.834930 709.166504,431.435577 
	C735.346924,431.145172 767.353699,450.413422 772.488098,485.583435 
	C772.607239,486.399506 772.924072,487.186707 773.210754,488.442871 
M697.048157,455.490540 
	C674.490417,461.118683 663.134460,487.365814 668.988586,507.313263 
	C674.018616,524.452637 685.323059,535.235596 702.720520,538.220337 
	C719.709656,541.135193 733.383362,533.924744 743.604614,520.511719 
	C754.451416,506.277771 754.699707,486.581482 744.453430,471.948364 
	C732.881775,455.422485 718.692078,451.658051 697.048157,455.490540 
z"/>
<path fill="#000000" opacity="1.000000" stroke="none" 
	d="
M182.033478,716.851196 
	C181.997635,724.687012 181.999069,724.612244 174.741013,724.472839 
	C169.410950,724.370361 164.041290,724.126648 158.754471,724.630371 
	C154.008057,725.082520 153.645523,722.776733 153.654129,719.070312 
	C153.732697,685.238464 153.696732,651.406433 153.694702,617.574402 
	C153.694138,608.241455 153.811066,598.906311 153.637177,589.576599 
	C153.569824,585.962402 154.731232,584.569641 158.484589,584.600952 
	C176.316025,584.749878 194.170288,584.146973 211.975677,584.847229 
	C228.239227,585.486938 243.528275,589.734192 252.997040,604.622925 
	C269.241760,630.166199 261.436798,670.599792 222.100540,676.498108 
	C210.674927,678.211304 199.220688,678.370300 187.746811,678.178833 
	C183.413361,678.106567 181.863113,679.457764 181.964447,683.875793 
	C182.212784,694.702881 182.041168,705.539490 182.033478,716.851196 
M219.415619,651.110474 
	C229.490601,647.233398 233.112183,638.035156 232.513474,629.747253 
	C231.725372,618.837646 226.273651,612.993408 215.252411,611.086182 
	C205.372070,609.376343 195.346359,610.702637 185.390533,610.408081 
	C182.673386,610.327637 182.068024,612.028625 182.070053,614.303772 
	C182.080292,625.781128 182.095520,637.258545 182.049988,648.735718 
	C182.039383,651.405579 183.062958,652.776855 185.874725,652.665222 
	C196.807587,652.231140 207.816544,653.773621 219.415619,651.110474 
z"/>
<path fill="#000000" opacity="1.000000" stroke="none" 
	d="
M328.913818,619.675537 
	C359.460327,625.665039 370.382477,651.835205 369.384216,676.530029 
	C369.215027,680.715820 366.588409,680.314880 363.925659,680.316833 
	C343.107849,680.332092 322.290070,680.331055 301.472260,680.344177 
	C293.684326,680.349060 293.662842,680.386292 295.404449,687.759949 
	C299.781677,706.292053 323.434204,712.981689 338.147919,699.580933 
	C341.426788,696.594604 344.573975,695.417603 348.806030,695.588318 
	C354.755737,695.828308 360.722351,695.648987 366.409546,695.648987 
	C367.527954,698.308411 366.373901,699.891357 365.578308,701.475525 
	C358.240753,716.086060 345.768463,723.657837 330.167938,726.110413 
	C316.587006,728.245667 303.132111,727.157532 291.183807,719.547058 
	C276.457672,710.167419 268.735626,696.507568 267.457703,679.004089 
	C266.095154,660.341736 270.673737,644.007385 285.276337,631.507080 
	C297.750000,620.829224 312.242920,616.907532 328.913818,619.675537 
M327.491608,662.696899 
	C330.157227,662.697388 332.822845,662.705505 335.488434,662.696899 
	C342.081299,662.675476 343.125214,661.164124 340.816132,655.000977 
	C337.389099,645.853882 328.326172,640.046997 318.005829,640.385742 
	C307.743103,640.722595 299.660034,647.214905 296.258820,657.340515 
	C294.917450,661.333801 295.596558,662.828857 300.005951,662.734619 
	C308.831573,662.545898 317.664337,662.689819 327.491608,662.696899 
z"/>
<path fill="#000000" opacity="1.000000" stroke="none" 
	d="
M764.520142,714.547485 
	C747.574219,728.208496 728.816040,730.243225 709.276855,723.314575 
	C690.801392,716.763123 680.393982,702.395325 678.068237,683.379028 
	C674.975464,658.090637 681.742493,636.225891 707.231628,623.756165 
	C736.426392,609.473633 774.777954,624.827637 778.354980,665.356689 
	C778.646912,668.664673 778.826233,671.982666 779.122131,675.290283 
	C779.473206,679.214233 777.704041,680.435486 773.847107,680.408875 
	C752.695251,680.262756 731.541931,680.326782 710.389099,680.335938 
	C703.976440,680.338684 703.883423,680.916382 705.059265,687.338501 
	C708.419739,705.692566 732.315857,712.807739 747.629517,699.938782 
	C751.422241,696.751465 754.917969,695.321228 759.669678,695.578857 
	C764.951294,695.865112 770.260376,695.644287 776.328491,695.644287 
	C774.744873,703.934875 770.264282,709.419800 764.520142,714.547485 
M709.065491,662.660889 
	C721.531677,662.677490 733.997803,662.713684 746.463989,662.701172 
	C751.558105,662.696106 752.471436,661.534119 751.267212,656.852600 
	C748.572144,646.374695 738.939758,639.846680 726.970337,640.386169 
	C716.748901,640.846924 707.251160,649.153503 705.619324,658.968506 
	C705.250732,661.185608 705.689331,662.591309 709.065491,662.660889 
z"/>
<path fill="#000000" opacity="1.000000" stroke="none" 
	d="
M800.041016,708.902710 
	C786.127625,689.946350 784.333252,669.693359 792.832336,648.638550 
	C799.914673,631.093262 814.217957,622.291931 832.387024,619.785095 
	C846.315308,617.863342 859.590271,620.039795 871.071716,629.065308 
	C878.529602,634.928040 883.354004,642.531799 886.091919,651.525879 
	C886.471191,652.771667 886.830688,654.106995 885.916260,655.910706 
	C878.233398,655.910706 870.296082,655.942444 862.359497,655.886047 
	C860.605652,655.873596 859.994873,654.293640 859.137451,653.069214 
	C848.727966,638.203369 828.823914,638.923096 819.391968,654.491516 
	C811.714722,667.163635 812.774048,684.231567 821.918335,695.196594 
	C831.895386,707.160156 850.291504,706.929565 859.648193,694.484314 
	C861.811462,691.606873 864.015076,690.464050 867.530212,690.596863 
	C873.940308,690.839050 880.366028,690.665649 887.614441,690.665649 
	C882.755798,707.814697 872.714661,718.639221 856.991821,724.063538 
	C836.040039,731.291870 814.970581,725.666504 800.041016,708.902710 
z"/>
<path fill="#000000" opacity="1.000000" stroke="none" 
	d="
M384.656555,670.999878 
	C384.658600,656.351379 384.778229,642.201355 384.589417,628.055420 
	C384.535522,624.017944 385.692902,622.336182 389.926147,622.580383 
	C395.068848,622.877014 400.255402,622.872314 405.398041,622.571228 
	C409.812317,622.312744 412.031464,623.620483 411.381287,628.375427 
	C411.160614,629.989197 411.346344,631.658447 411.346344,633.381531 
	C413.550018,633.550171 414.048767,631.862976 414.980377,630.870972 
	C421.888153,623.515076 430.492737,620.281311 440.442139,620.256104 
	C443.775940,620.247681 445.646698,621.387573 445.413788,625.268555 
	C445.105133,630.410461 445.269745,635.584656 445.336121,640.743591 
	C445.368347,643.245667 444.363953,644.455200 441.802246,644.358337 
	C439.133057,644.257263 436.530029,644.683838 433.899109,645.204773 
	C419.180817,648.119080 411.603180,656.786194 411.375183,671.869568 
	C411.136261,687.679077 411.165314,703.495728 411.345276,719.306274 
	C411.393097,723.510315 410.015320,724.852600 405.877289,724.529480 
	C401.244171,724.167786 396.562317,724.430054 391.901672,724.421814 
	C384.670319,724.408997 384.659485,724.409363 384.656250,716.941711 
	C384.649658,701.794434 384.656036,686.647217 384.656555,670.999878 
z"/>
<path fill="#000000" opacity="1.000000" stroke="none" 
	d="
M484.339508,640.001587 
	C484.339783,668.271362 484.339783,696.041321 484.339783,724.139771 
	C475.349457,724.139771 466.940826,724.139771 458.483490,724.139771 
	C457.107391,722.549133 457.681641,720.635742 457.679352,718.887146 
	C457.640106,688.912109 457.770569,658.936096 457.535095,628.962830 
	C457.494995,623.859131 458.982819,622.186646 464.008545,622.556702 
	C469.475006,622.959167 474.993500,622.728394 480.487610,622.651367 
	C483.235382,622.612854 484.393036,623.757141 484.333160,626.513489 
	C484.239166,630.840820 484.327881,635.172119 484.339508,640.001587 
z"/>
<path fill="#000000" opacity="1.000000" stroke="none" 
	d="
M467.831543,582.667725 
	C474.440247,581.979492 479.863770,583.291199 483.199554,589.129272 
	C486.060242,594.135803 486.288788,599.227783 482.864685,604.122620 
	C479.227905,609.321411 472.447235,611.616821 466.581482,609.736816 
	C460.581238,607.813843 456.792480,602.889465 456.672089,596.857239 
	C456.527496,589.612915 459.853516,585.238831 467.831543,582.667725 
z"/>
<path fill="#000000" opacity="1.000000" stroke="none" 
	d="
M346.348938,400.900330 
	C325.472137,397.627014 304.926941,394.958282 284.777161,389.818909 
	C289.685913,388.281921 294.593048,388.483856 299.433258,388.875275 
	C313.150757,389.984589 326.914124,390.556519 340.557648,392.580688 
	C348.915344,393.820648 357.329773,394.692230 365.731842,395.609009 
	C367.948242,395.850830 369.810364,396.280121 369.709808,398.945557 
	C369.611938,401.539093 368.584015,403.272278 365.508667,403.405396 
	C359.105499,403.682526 353.043121,401.574280 346.348938,400.900330 
z"/>
</svg>